<svg width="30" height="30" viewBox="0 0 30 30" fill="none" xmlns="http://www.w3.org/2000/svg">
<g clip-path="url(#clip0_8_132)">
<path d="M27.5712 6.53747L18.3537 2.14622C16.3247 0.934268 13.7994 0.912764 11.75 2.08997L2.42877 6.53747C2.39379 6.55499 2.35752 6.57374 2.32377 6.59372C0.111736 7.85853 -0.656194 10.6771 0.60861 12.8891C1.03734 13.639 1.66799 14.2534 2.42877 14.6625L5.00004 15.8875V22.0125C5.00156 24.7513 6.78369 27.171 9.39879 27.985C11.2186 28.5115 13.1057 28.7692 15.0001 28.75C16.8942 28.7712 18.7812 28.5156 20.6013 27.9913C23.2164 27.1774 24.9986 24.7576 25.0001 22.0188V15.885L27.5001 14.69V25C27.5001 25.6903 28.0597 26.2499 28.7501 26.2499C29.4404 26.2499 30.0001 25.6903 30.0001 25V9.99995C30.0084 8.53212 28.8494 7.17614 27.5712 6.53747ZM22.5 22.0188C22.5006 23.657 21.4378 25.1061 19.875 25.5975C18.2903 26.0503 16.6481 26.2701 15 26.25C13.3519 26.2701 11.7097 26.0503 10.125 25.5975C8.56224 25.106 7.49935 23.657 7.5 22.0188V17.0788L11.6463 19.0538C12.6693 19.6613 13.8377 19.9805 15.0275 19.9775C16.16 19.9856 17.2735 19.6857 18.2488 19.11L22.5 17.0787V22.0188ZM26.5 12.4062L17.0725 16.9062C15.758 17.6716 14.1287 17.65 12.835 16.85L3.61125 12.4625C2.5831 11.9081 2.19908 10.6251 2.75349 9.59706C2.94099 9.24937 3.22213 8.96114 3.56502 8.76497L12.9337 4.28999C14.2486 3.52628 15.8771 3.5479 17.1712 4.34624L26.3887 8.73749C27.0666 9.1139 27.4907 9.8247 27.5 10.6C27.5012 11.3344 27.123 12.0174 26.5 12.4062Z" fill="black"/>
</g>
<defs>
<clipPath id="clip0_8_132">
<rect width="30" height="30" fill="white"/>
</clipPath>
</defs>
</svg>
